<svg width="79" height="30" viewBox="0 0 79 30" fill="none" xmlns="http://www.w3.org/2000/svg">
<g filter="url(#filter0_d)">
<path d="M4.872 1.384H8.33L14.024 11.238H14.232L19.926 1.384H23.41V20H19.926V10.822L20.134 7.702H19.926L15.194 16.048H13.088L8.33 7.702H8.122L8.33 10.822V20H4.872V1.384ZM31.819 1.384H35.823L42.817 20H38.943L37.409 15.554H30.233L28.699 20H24.825L31.819 1.384ZM36.265 12.33L34.601 7.676L33.925 5.414H33.717L33.041 7.676L31.377 12.33H36.265ZM56.5525 19.584C55.9458 19.844 55.3045 20.0433 54.6285 20.182C53.9525 20.338 53.2505 20.416 52.5225 20.416C51.1358 20.416 49.8445 20.1647 48.6485 19.662C47.4698 19.1593 46.4471 18.4747 45.5805 17.608C44.7138 16.724 44.0291 15.6927 43.5265 14.514C43.0411 13.318 42.7985 12.044 42.7985 10.692C42.7985 9.34 43.0411 8.07467 43.5265 6.896C44.0291 5.7 44.7138 4.66867 45.5805 3.802C46.4471 2.918 47.4698 2.22467 48.6485 1.722C49.8445 1.21933 51.1358 0.967999 52.5225 0.967999C53.9092 0.967999 55.1918 1.21933 56.3705 1.722C57.5665 2.22467 58.5978 2.918 59.4645 3.802C60.3312 4.66867 61.0072 5.7 61.4925 6.896C61.9952 8.07467 62.2465 9.34 62.2465 10.692C62.2465 12.1307 61.9778 13.4653 61.4405 14.696C60.9032 15.9267 60.1492 16.984 59.1785 17.868L60.6085 20L58.0085 21.742L56.5525 19.584ZM52.6005 13.656L55.2005 11.888L57.2285 14.956C57.6965 14.4187 58.0605 13.7947 58.3205 13.084C58.5978 12.356 58.7365 11.5587 58.7365 10.692C58.7365 9.73867 58.5718 8.872 58.2425 8.092C57.9305 7.29467 57.4885 6.61867 56.9165 6.064C56.3618 5.50933 55.7032 5.076 54.9405 4.764C54.1952 4.452 53.3892 4.296 52.5225 4.296C51.6558 4.296 50.8412 4.452 50.0785 4.764C49.3332 5.076 48.6745 5.50933 48.1025 6.064C47.5478 6.61867 47.1058 7.29467 46.7765 8.092C46.4645 8.872 46.3085 9.73867 46.3085 10.692C46.3085 11.6453 46.4645 12.5207 46.7765 13.318C47.1058 14.098 47.5478 14.7653 48.1025 15.32C48.6745 15.8747 49.3332 16.308 50.0785 16.62C50.8412 16.932 51.6558 17.088 52.5225 17.088C52.9038 17.088 53.2678 17.0533 53.6145 16.984C53.9612 16.9147 54.2992 16.8193 54.6285 16.698L52.6005 13.656ZM68.9354 20.416C68.1034 20.416 67.3581 20.312 66.6994 20.104C66.0581 19.896 65.4947 19.6273 65.0094 19.298C64.5414 18.9513 64.1427 18.5613 63.8134 18.128C63.4841 17.6773 63.2327 17.2267 63.0594 16.776L66.1014 15.476C66.3961 16.1347 66.7861 16.6287 67.2714 16.958C67.7741 17.27 68.3287 17.426 68.9354 17.426C69.5594 17.426 70.0534 17.3133 70.4174 17.088C70.7814 16.8627 70.9634 16.594 70.9634 16.282C70.9634 15.9353 70.8074 15.658 70.4954 15.45C70.2007 15.2247 69.6807 15.0253 68.9354 14.852L67.1414 14.462C66.7427 14.3753 66.3267 14.2367 65.8934 14.046C65.4774 13.8553 65.0961 13.6127 64.7494 13.318C64.4027 13.0233 64.1167 12.668 63.8914 12.252C63.6661 11.836 63.5534 11.3507 63.5534 10.796C63.5534 10.172 63.6834 9.61733 63.9434 9.132C64.2207 8.64667 64.5934 8.23933 65.0614 7.91C65.5294 7.56333 66.0754 7.30333 66.6994 7.13C67.3407 6.93933 68.0254 6.844 68.7534 6.844C69.9667 6.844 71.0501 7.08667 72.0034 7.572C72.9567 8.04 73.6587 8.794 74.1094 9.834L71.1714 11.03C70.9287 10.5273 70.5734 10.1633 70.1054 9.938C69.6374 9.71267 69.1694 9.6 68.7014 9.6C68.2161 9.6 67.7914 9.704 67.4274 9.912C67.0634 10.1027 66.8814 10.354 66.8814 10.666C66.8814 10.9607 67.0287 11.1947 67.3234 11.368C67.6354 11.5413 68.0514 11.6973 68.5714 11.836L70.5214 12.304C71.8214 12.616 72.7834 13.1187 73.4074 13.812C74.0487 14.488 74.3694 15.294 74.3694 16.23C74.3694 16.7847 74.2394 17.3133 73.9794 17.816C73.7194 18.3187 73.3467 18.7693 72.8614 19.168C72.3934 19.5493 71.8214 19.8527 71.1454 20.078C70.4867 20.3033 69.7501 20.416 68.9354 20.416Z" fill="#3AE4DF"/>
</g>
<defs>
<filter id="filter0_d" x="0.872009" y="0.968018" width="77.4974" height="28.774" filterUnits="userSpaceOnUse" color-interpolation-filters="sRGB">
<feFlood flood-opacity="0" result="BackgroundImageFix"/>
<feColorMatrix in="SourceAlpha" type="matrix" values="0 0 0 0 0 0 0 0 0 0 0 0 0 0 0 0 0 0 127 0"/>
<feOffset dy="4"/>
<feGaussianBlur stdDeviation="2"/>
<feColorMatrix type="matrix" values="0 0 0 0 0 0 0 0 0 0 0 0 0 0 0 0 0 0 0.25 0"/>
<feBlend mode="normal" in2="BackgroundImageFix" result="effect1_dropShadow"/>
<feBlend mode="normal" in="SourceGraphic" in2="effect1_dropShadow" result="shape"/>
</filter>
</defs>
</svg>
