<svg width="12" height="16" viewBox="0 0 12 16" fill="none" xmlns="http://www.w3.org/2000/svg">
<g clip-path="url(#clip0)">
<rect width="1440" height="2159" transform="translate(-297 -41)" fill="white"/>
<rect x="-297" y="-34" width="1440" height="100" fill="white"/>
<path d="M-123.824 13H-125.049V8.72803H-129.708V13H-130.927V3.75781H-129.708V7.73145H-125.049V3.75781H-123.824V13ZM-114.55 8.67725C-114.55 9.58285 -114.703 10.3742 -115.007 11.0513C-115.312 11.7241 -115.744 12.2383 -116.302 12.5938C-116.861 12.9492 -117.513 13.127 -118.257 13.127C-118.985 13.127 -119.631 12.9492 -120.193 12.5938C-120.756 12.234 -121.194 11.7241 -121.507 11.064C-121.816 10.3996 -121.975 9.63151 -121.983 8.75977V8.09326C-121.983 7.20459 -121.829 6.4196 -121.52 5.73828C-121.211 5.05697 -120.775 4.53646 -120.212 4.17676C-119.645 3.81283 -118.998 3.63086 -118.27 3.63086C-117.529 3.63086 -116.878 3.81071 -116.315 4.17041C-115.748 4.52588 -115.312 5.04427 -115.007 5.72559C-114.703 6.40267 -114.55 7.19189 -114.55 8.09326V8.67725ZM-115.763 8.08057C-115.763 6.98454 -115.983 6.14453 -116.423 5.56055C-116.863 4.97233 -117.479 4.67822 -118.27 4.67822C-119.04 4.67822 -119.647 4.97233 -120.092 5.56055C-120.532 6.14453 -120.758 6.95703 -120.771 7.99805V8.67725C-120.771 9.73942 -120.549 10.5752 -120.104 11.1846C-119.656 11.7897 -119.04 12.0923 -118.257 12.0923C-117.47 12.0923 -116.861 11.8066 -116.429 11.2354C-115.998 10.6598 -115.775 9.83675 -115.763 8.76611V8.08057ZM-111.148 3.75781L-108.126 11.2988L-105.105 3.75781H-103.524V13H-104.743V9.40088L-104.629 5.51611L-107.663 13H-108.596L-111.624 5.53516L-111.503 9.40088V13H-112.722V3.75781H-111.148ZM-96.1484 8.72803H-100.154V12.0034H-95.501V13H-101.373V3.75781H-95.5645V4.76074H-100.154V7.73145H-96.1484V8.72803ZM-56.6343 10.5879H-60.5063L-61.376 13H-62.6328L-59.1035 3.75781H-58.0371L-54.5015 13H-55.752L-56.6343 10.5879ZM-60.1382 9.58496H-56.9961L-58.5703 5.26221L-60.1382 9.58496ZM-53.2573 13V3.75781H-50.2358C-49.2329 3.75781 -48.4797 3.96517 -47.9761 4.37988C-47.4683 4.7946 -47.2144 5.4082 -47.2144 6.2207C-47.2144 6.65234 -47.3371 7.03532 -47.5825 7.36963C-47.828 7.69971 -48.1623 7.95573 -48.5854 8.1377C-48.0861 8.27734 -47.6925 8.54395 -47.4048 8.9375C-47.1128 9.32682 -46.9668 9.79232 -46.9668 10.334C-46.9668 11.1634 -47.2355 11.8151 -47.7729 12.2891C-48.3104 12.763 -49.07 13 -50.0518 13H-53.2573ZM-52.0386 8.67725V12.0034H-50.0264C-49.4593 12.0034 -49.0129 11.8574 -48.687 11.5654C-48.3569 11.2692 -48.1919 10.863 -48.1919 10.3467C-48.1919 9.23372 -48.797 8.67725 -50.0073 8.67725H-52.0386ZM-52.0386 7.69971H-50.1978C-49.6646 7.69971 -49.2393 7.56641 -48.9219 7.2998C-48.6003 7.0332 -48.4395 6.67139 -48.4395 6.21436C-48.4395 5.70654 -48.5876 5.33838 -48.8838 5.10986C-49.18 4.87712 -49.6307 4.76074 -50.2358 4.76074H-52.0386V7.69971ZM-38.0483 8.67725C-38.0483 9.58285 -38.2007 10.3742 -38.5054 11.0513C-38.8101 11.7241 -39.2417 12.2383 -39.8003 12.5938C-40.3589 12.9492 -41.0106 13.127 -41.7554 13.127C-42.4832 13.127 -43.1286 12.9492 -43.6914 12.5938C-44.2542 12.234 -44.6922 11.7241 -45.0054 11.064C-45.3143 10.3996 -45.473 9.63151 -45.4814 8.75977V8.09326C-45.4814 7.20459 -45.327 6.4196 -45.0181 5.73828C-44.7091 5.05697 -44.2733 4.53646 -43.7104 4.17676C-43.1434 3.81283 -42.4959 3.63086 -41.7681 3.63086C-41.0275 3.63086 -40.3758 3.81071 -39.813 4.17041C-39.2459 4.52588 -38.8101 5.04427 -38.5054 5.72559C-38.2007 6.40267 -38.0483 7.19189 -38.0483 8.09326V8.67725ZM-39.2607 8.08057C-39.2607 6.98454 -39.4808 6.14453 -39.9209 5.56055C-40.361 4.97233 -40.9767 4.67822 -41.7681 4.67822C-42.5382 4.67822 -43.1455 4.97233 -43.5898 5.56055C-44.0299 6.14453 -44.2563 6.95703 -44.269 7.99805V8.67725C-44.269 9.73942 -44.0469 10.5752 -43.6025 11.1846C-43.154 11.7897 -42.5382 12.0923 -41.7554 12.0923C-40.9683 12.0923 -40.3589 11.8066 -39.9272 11.2354C-39.4956 10.6598 -39.2734 9.83675 -39.2607 8.76611V8.08057ZM-29.7139 3.75781V10.042C-29.7181 10.9137 -29.9932 11.6268 -30.5391 12.1812C-31.0807 12.7355 -31.8171 13.0465 -32.748 13.1143L-33.0718 13.127C-34.0832 13.127 -34.8893 12.854 -35.4902 12.3081C-36.0911 11.7622 -36.3958 11.0111 -36.4043 10.0547V3.75781H-35.1982V10.0166C-35.1982 10.6852 -35.0142 11.2057 -34.646 11.5781C-34.2778 11.9463 -33.7531 12.1304 -33.0718 12.1304C-32.382 12.1304 -31.8551 11.9463 -31.4912 11.5781C-31.123 11.21 -30.939 10.6916 -30.939 10.0229V3.75781H-29.7139ZM-21.4048 4.76074H-24.3755V13H-25.5879V4.76074H-28.5522V3.75781H-21.4048V4.76074ZM-10.5566 3.75781V10.042C-10.5609 10.9137 -10.8359 11.6268 -11.3818 12.1812C-11.9235 12.7355 -12.6598 13.0465 -13.5908 13.1143L-13.9146 13.127C-14.9259 13.127 -15.7321 12.854 -16.333 12.3081C-16.9339 11.7622 -17.2386 11.0111 -17.2471 10.0547V3.75781H-16.041V10.0166C-16.041 10.6852 -15.8569 11.2057 -15.4888 11.5781C-15.1206 11.9463 -14.5959 12.1304 -13.9146 12.1304C-13.2248 12.1304 -12.6979 11.9463 -12.334 11.5781C-11.9658 11.21 -11.7817 10.6916 -11.7817 10.0229V3.75781H-10.5566ZM-5.91016 8.88037C-6.9554 8.57992 -7.71712 8.21175 -8.19531 7.77588C-8.66927 7.33577 -8.90625 6.79411 -8.90625 6.15088C-8.90625 5.42301 -8.61637 4.8221 -8.03662 4.34814C-7.45264 3.86995 -6.69515 3.63086 -5.76416 3.63086C-5.12939 3.63086 -4.56445 3.75358 -4.06934 3.99902C-3.56999 4.24447 -3.1849 4.58301 -2.91406 5.01465C-2.639 5.44629 -2.50146 5.91813 -2.50146 6.43018H-3.72656C-3.72656 5.87158 -3.9043 5.43359 -4.25977 5.11621C-4.61523 4.7946 -5.1167 4.63379 -5.76416 4.63379C-6.36507 4.63379 -6.8348 4.76709 -7.17334 5.03369C-7.50765 5.29606 -7.6748 5.66211 -7.6748 6.13184C-7.6748 6.50846 -7.51611 6.82796 -7.19873 7.09033C-6.87712 7.34847 -6.33333 7.58545 -5.56738 7.80127C-4.7972 8.01709 -4.19629 8.25618 -3.76465 8.51855C-3.32878 8.77669 -3.00716 9.07926 -2.7998 9.42627C-2.58822 9.77327 -2.48242 10.1816 -2.48242 10.6514C-2.48242 11.4004 -2.77441 12.0013 -3.3584 12.4541C-3.94238 12.9027 -4.72314 13.127 -5.70068 13.127C-6.33545 13.127 -6.9279 13.0063 -7.47803 12.7651C-8.02816 12.5197 -8.45345 12.1854 -8.75391 11.7622C-9.05013 11.339 -9.19824 10.8587 -9.19824 10.3213H-7.97314C-7.97314 10.8799 -7.7679 11.3221 -7.35742 11.6479C-6.94271 11.9696 -6.39046 12.1304 -5.70068 12.1304C-5.05745 12.1304 -4.56445 11.9992 -4.22168 11.7368C-3.87891 11.4744 -3.70752 11.1169 -3.70752 10.6641C-3.70752 10.2113 -3.86621 9.86214 -4.18359 9.6167C-4.50098 9.36702 -5.0765 9.12158 -5.91016 8.88037ZM9.06125 7.19643C9.06125 7.13839 9.03223 7.0731 8.9887 7.02958L8.62598 6.66685C8.58245 6.62333 8.51716 6.59431 8.45912 6.59431C8.40109 6.59431 8.3358 6.62333 8.29227 6.66685L5.44127 9.51786L2.59026 6.66685C2.54674 6.62333 2.48145 6.59431 2.42341 6.59431C2.35812 6.59431 2.30008 6.62333 2.25656 6.66685L1.89383 7.02958C1.85031 7.0731 1.82129 7.13839 1.82129 7.19643C1.82129 7.25446 1.85031 7.31975 1.89383 7.36328L5.27441 10.7439C5.31794 10.7874 5.38323 10.8164 5.44127 10.8164C5.4993 10.8164 5.56459 10.7874 5.60812 10.7439L8.9887 7.36328C9.03223 7.31975 9.06125 7.25446 9.06125 7.19643ZM49.7334 10.0674C49.6191 11.0449 49.2573 11.8003 48.6479 12.3335C48.0428 12.8625 47.2367 13.127 46.2295 13.127C45.1377 13.127 44.2617 12.7355 43.6016 11.9526C42.9456 11.1698 42.6177 10.1224 42.6177 8.81055V7.92188C42.6177 7.06283 42.77 6.30745 43.0747 5.65576C43.3836 5.00407 43.8195 4.50472 44.3823 4.15771C44.9451 3.80648 45.5968 3.63086 46.3374 3.63086C47.3192 3.63086 48.1063 3.90592 48.6987 4.45605C49.2912 5.00195 49.6361 5.75944 49.7334 6.72852H48.5083C48.4025 5.99219 48.1719 5.45898 47.8164 5.12891C47.4652 4.79883 46.9722 4.63379 46.3374 4.63379C45.5588 4.63379 44.9473 4.92155 44.5029 5.49707C44.0628 6.07259 43.8428 6.89144 43.8428 7.95361V8.84863C43.8428 9.85156 44.0522 10.6493 44.4712 11.2417C44.8901 11.8341 45.4762 12.1304 46.2295 12.1304C46.9066 12.1304 47.425 11.978 47.7847 11.6733C48.1486 11.3644 48.3898 10.8291 48.5083 10.0674H49.7334ZM58.5122 8.67725C58.5122 9.58285 58.3599 10.3742 58.0552 11.0513C57.7505 11.7241 57.3188 12.2383 56.7603 12.5938C56.2017 12.9492 55.55 13.127 54.8052 13.127C54.0773 13.127 53.432 12.9492 52.8691 12.5938C52.3063 12.234 51.8683 11.7241 51.5552 11.064C51.2463 10.3996 51.0876 9.63151 51.0791 8.75977V8.09326C51.0791 7.20459 51.2336 6.4196 51.5425 5.73828C51.8514 5.05697 52.2873 4.53646 52.8501 4.17676C53.4172 3.81283 54.0646 3.63086 54.7925 3.63086C55.533 3.63086 56.1847 3.81071 56.7476 4.17041C57.3146 4.52588 57.7505 5.04427 58.0552 5.72559C58.3599 6.40267 58.5122 7.19189 58.5122 8.09326V8.67725ZM57.2998 8.08057C57.2998 6.98454 57.0798 6.14453 56.6396 5.56055C56.1995 4.97233 55.5838 4.67822 54.7925 4.67822C54.0223 4.67822 53.415 4.97233 52.9707 5.56055C52.5306 6.14453 52.3042 6.95703 52.2915 7.99805V8.67725C52.2915 9.73942 52.5137 10.5752 52.958 11.1846C53.4066 11.7897 54.0223 12.0923 54.8052 12.0923C55.5923 12.0923 56.2017 11.8066 56.6333 11.2354C57.0649 10.6598 57.2871 9.83675 57.2998 8.76611V8.08057ZM66.8467 3.75781V10.042C66.8424 10.9137 66.5674 11.6268 66.0215 12.1812C65.4798 12.7355 64.7435 13.0465 63.8125 13.1143L63.4888 13.127C62.4774 13.127 61.6712 12.854 61.0703 12.3081C60.4694 11.7622 60.1647 11.0111 60.1562 10.0547V3.75781H61.3623V10.0166C61.3623 10.6852 61.5464 11.2057 61.9146 11.5781C62.2827 11.9463 62.8075 12.1304 63.4888 12.1304C64.1785 12.1304 64.7054 11.9463 65.0693 11.5781C65.4375 11.21 65.6216 10.6916 65.6216 10.0229V3.75781H66.8467ZM72.1597 9.26123H69.9888V13H68.7637V3.75781H71.8232C72.8643 3.75781 73.6641 3.99479 74.2227 4.46875C74.7855 4.94271 75.0669 5.63249 75.0669 6.53809C75.0669 7.11361 74.9103 7.61507 74.5972 8.04248C74.2882 8.46989 73.8566 8.78939 73.3022 9.00098L75.4731 12.9238V13H74.1655L72.1597 9.26123ZM69.9888 8.26465H71.8613C72.4665 8.26465 72.9468 8.10807 73.3022 7.79492C73.6619 7.48177 73.8418 7.06283 73.8418 6.53809C73.8418 5.9668 73.6704 5.52881 73.3276 5.22412C72.9891 4.91943 72.4982 4.76497 71.855 4.76074H69.9888V8.26465ZM79.5039 8.88037C78.4587 8.57992 77.6969 8.21175 77.2188 7.77588C76.7448 7.33577 76.5078 6.79411 76.5078 6.15088C76.5078 5.42301 76.7977 4.8221 77.3774 4.34814C77.9614 3.86995 78.7189 3.63086 79.6499 3.63086C80.2847 3.63086 80.8496 3.75358 81.3447 3.99902C81.8441 4.24447 82.2292 4.58301 82.5 5.01465C82.7751 5.44629 82.9126 5.91813 82.9126 6.43018H81.6875C81.6875 5.87158 81.5098 5.43359 81.1543 5.11621C80.7988 4.7946 80.2974 4.63379 79.6499 4.63379C79.049 4.63379 78.5793 4.76709 78.2407 5.03369C77.9064 5.29606 77.7393 5.66211 77.7393 6.13184C77.7393 6.50846 77.8979 6.82796 78.2153 7.09033C78.5369 7.34847 79.0807 7.58545 79.8467 7.80127C80.6169 8.01709 81.2178 8.25618 81.6494 8.51855C82.0853 8.77669 82.4069 9.07926 82.6143 9.42627C82.8258 9.77327 82.9316 10.1816 82.9316 10.6514C82.9316 11.4004 82.6396 12.0013 82.0557 12.4541C81.4717 12.9027 80.6909 13.127 79.7134 13.127C79.0786 13.127 78.4862 13.0063 77.936 12.7651C77.3859 12.5197 76.9606 12.1854 76.6602 11.7622C76.3639 11.339 76.2158 10.8587 76.2158 10.3213H77.4409C77.4409 10.8799 77.6462 11.3221 78.0566 11.6479C78.4714 11.9696 79.0236 12.1304 79.7134 12.1304C80.3566 12.1304 80.8496 11.9992 81.1924 11.7368C81.5352 11.4744 81.7065 11.1169 81.7065 10.6641C81.7065 10.2113 81.5479 9.86214 81.2305 9.6167C80.9131 9.36702 80.3376 9.12158 79.5039 8.88037ZM89.7236 8.72803H85.7183V12.0034H90.3711V13H84.4995V3.75781H90.3076V4.76074H85.7183V7.73145H89.7236V8.72803ZM94.6113 8.88037C93.5661 8.57992 92.8044 8.21175 92.3262 7.77588C91.8522 7.33577 91.6152 6.79411 91.6152 6.15088C91.6152 5.42301 91.9051 4.8221 92.4849 4.34814C93.0688 3.86995 93.8263 3.63086 94.7573 3.63086C95.3921 3.63086 95.957 3.75358 96.4521 3.99902C96.9515 4.24447 97.3366 4.58301 97.6074 5.01465C97.8825 5.44629 98.02 5.91813 98.02 6.43018H96.7949C96.7949 5.87158 96.6172 5.43359 96.2617 5.11621C95.9062 4.7946 95.4048 4.63379 94.7573 4.63379C94.1564 4.63379 93.6867 4.76709 93.3481 5.03369C93.0138 5.29606 92.8467 5.66211 92.8467 6.13184C92.8467 6.50846 93.0054 6.82796 93.3228 7.09033C93.6444 7.34847 94.1882 7.58545 94.9541 7.80127C95.7243 8.01709 96.3252 8.25618 96.7568 8.51855C97.1927 8.77669 97.5143 9.07926 97.7217 9.42627C97.9333 9.77327 98.0391 10.1816 98.0391 10.6514C98.0391 11.4004 97.7471 12.0013 97.1631 12.4541C96.5791 12.9027 95.7983 13.127 94.8208 13.127C94.186 13.127 93.5936 13.0063 93.0435 12.7651C92.4933 12.5197 92.068 12.1854 91.7676 11.7622C91.4714 11.339 91.3232 10.8587 91.3232 10.3213H92.5483C92.5483 10.8799 92.7536 11.3221 93.1641 11.6479C93.5788 11.9696 94.131 12.1304 94.8208 12.1304C95.464 12.1304 95.957 11.9992 96.2998 11.7368C96.6426 11.4744 96.814 11.1169 96.814 10.6641C96.814 10.2113 96.6553 9.86214 96.3379 9.6167C96.0205 9.36702 95.445 9.12158 94.6113 8.88037ZM109.557 7.19643C109.557 7.13839 109.528 7.0731 109.485 7.02958L109.122 6.66685C109.079 6.62333 109.013 6.59431 108.955 6.59431C108.897 6.59431 108.832 6.62333 108.788 6.66685L105.937 9.51786L103.086 6.66685C103.043 6.62333 102.978 6.59431 102.92 6.59431C102.854 6.59431 102.796 6.62333 102.753 6.66685L102.39 7.02958C102.346 7.0731 102.317 7.13839 102.317 7.19643C102.317 7.25446 102.346 7.31975 102.39 7.36328L105.771 10.7439C105.814 10.7874 105.879 10.8164 105.937 10.8164C105.995 10.8164 106.061 10.7874 106.104 10.7439L109.485 7.36328C109.528 7.31975 109.557 7.25446 109.557 7.19643ZM145.31 10.5879H141.438L140.568 13H139.312L142.841 3.75781H143.907L147.443 13H146.192L145.31 10.5879ZM141.806 9.58496H144.948L143.374 5.26221L141.806 9.58496ZM148.687 13V3.75781H151.296C152.1 3.75781 152.811 3.93555 153.429 4.29102C154.047 4.64648 154.523 5.15218 154.857 5.80811C155.195 6.46403 155.367 7.21729 155.371 8.06787V8.6582C155.371 9.52995 155.202 10.2938 154.863 10.9497C154.529 11.6056 154.049 12.1092 153.422 12.4604C152.8 12.8117 152.075 12.9915 151.245 13H148.687ZM149.906 4.76074V12.0034H151.188C152.127 12.0034 152.857 11.7114 153.378 11.1274C153.903 10.5435 154.165 9.71191 154.165 8.63281V8.09326C154.165 7.04378 153.917 6.22917 153.422 5.64941C152.931 5.06543 152.233 4.76921 151.328 4.76074H149.906ZM158.792 3.75781L161.814 11.2988L164.835 3.75781H166.416V13H165.197V9.40088L165.312 5.51611L162.277 13H161.344L158.316 5.53516L158.437 9.40088V13H157.218V3.75781H158.792ZM169.875 13H168.657V3.75781H169.875V13ZM174.833 8.88037C173.788 8.57992 173.026 8.21175 172.548 7.77588C172.074 7.33577 171.837 6.79411 171.837 6.15088C171.837 5.42301 172.127 4.8221 172.707 4.34814C173.291 3.86995 174.048 3.63086 174.979 3.63086C175.614 3.63086 176.179 3.75358 176.674 3.99902C177.173 4.24447 177.558 4.58301 177.829 5.01465C178.104 5.44629 178.242 5.91813 178.242 6.43018H177.017C177.017 5.87158 176.839 5.43359 176.483 5.11621C176.128 4.7946 175.626 4.63379 174.979 4.63379C174.378 4.63379 173.908 4.76709 173.57 5.03369C173.236 5.29606 173.068 5.66211 173.068 6.13184C173.068 6.50846 173.227 6.82796 173.544 7.09033C173.866 7.34847 174.41 7.58545 175.176 7.80127C175.946 8.01709 176.547 8.25618 176.979 8.51855C177.414 8.77669 177.736 9.07926 177.943 9.42627C178.155 9.77327 178.261 10.1816 178.261 10.6514C178.261 11.4004 177.969 12.0013 177.385 12.4541C176.801 12.9027 176.02 13.127 175.042 13.127C174.408 13.127 173.815 13.0063 173.265 12.7651C172.715 12.5197 172.29 12.1854 171.989 11.7622C171.693 11.339 171.545 10.8587 171.545 10.3213H172.77C172.77 10.8799 172.975 11.3221 173.386 11.6479C173.8 11.9696 174.353 12.1304 175.042 12.1304C175.686 12.1304 176.179 11.9992 176.521 11.7368C176.864 11.4744 177.036 11.1169 177.036 10.6641C177.036 10.2113 176.877 9.86214 176.56 9.6167C176.242 9.36702 175.667 9.12158 174.833 8.88037ZM182.552 8.88037C181.507 8.57992 180.745 8.21175 180.267 7.77588C179.793 7.33577 179.556 6.79411 179.556 6.15088C179.556 5.42301 179.846 4.8221 180.425 4.34814C181.009 3.86995 181.767 3.63086 182.698 3.63086C183.333 3.63086 183.897 3.75358 184.393 3.99902C184.892 4.24447 185.277 4.58301 185.548 5.01465C185.823 5.44629 185.96 5.91813 185.96 6.43018H184.735C184.735 5.87158 184.558 5.43359 184.202 5.11621C183.847 4.7946 183.345 4.63379 182.698 4.63379C182.097 4.63379 181.627 4.76709 181.289 5.03369C180.954 5.29606 180.787 5.66211 180.787 6.13184C180.787 6.50846 180.946 6.82796 181.263 7.09033C181.585 7.34847 182.129 7.58545 182.895 7.80127C183.665 8.01709 184.266 8.25618 184.697 8.51855C185.133 8.77669 185.455 9.07926 185.662 9.42627C185.874 9.77327 185.979 10.1816 185.979 10.6514C185.979 11.4004 185.688 12.0013 185.104 12.4541C184.52 12.9027 183.739 13.127 182.761 13.127C182.126 13.127 181.534 13.0063 180.984 12.7651C180.434 12.5197 180.008 12.1854 179.708 11.7622C179.412 11.339 179.264 10.8587 179.264 10.3213H180.489C180.489 10.8799 180.694 11.3221 181.104 11.6479C181.519 11.9696 182.071 12.1304 182.761 12.1304C183.404 12.1304 183.897 11.9992 184.24 11.7368C184.583 11.4744 184.754 11.1169 184.754 10.6641C184.754 10.2113 184.596 9.86214 184.278 9.6167C183.961 9.36702 183.385 9.12158 182.552 8.88037ZM188.855 13H187.636V3.75781H188.855V13ZM198.199 8.67725C198.199 9.58285 198.046 10.3742 197.742 11.0513C197.437 11.7241 197.005 12.2383 196.447 12.5938C195.888 12.9492 195.236 13.127 194.492 13.127C193.764 13.127 193.118 12.9492 192.556 12.5938C191.993 12.234 191.555 11.7241 191.242 11.064C190.933 10.3996 190.774 9.63151 190.766 8.75977V8.09326C190.766 7.20459 190.92 6.4196 191.229 5.73828C191.538 5.05697 191.974 4.53646 192.537 4.17676C193.104 3.81283 193.751 3.63086 194.479 3.63086C195.22 3.63086 195.871 3.81071 196.434 4.17041C197.001 4.52588 197.437 5.04427 197.742 5.72559C198.046 6.40267 198.199 7.19189 198.199 8.09326V8.67725ZM196.986 8.08057C196.986 6.98454 196.766 6.14453 196.326 5.56055C195.886 4.97233 195.27 4.67822 194.479 4.67822C193.709 4.67822 193.102 4.97233 192.657 5.56055C192.217 6.14453 191.991 6.95703 191.978 7.99805V8.67725C191.978 9.73942 192.2 10.5752 192.645 11.1846C193.093 11.7897 193.709 12.0923 194.492 12.0923C195.279 12.0923 195.888 11.8066 196.32 11.2354C196.751 10.6598 196.974 9.83675 196.986 8.76611V8.08057ZM207.13 13H205.905L201.252 5.87793V13H200.027V3.75781H201.252L205.917 10.9116V3.75781H207.13V13ZM219.245 7.19643C219.245 7.13839 219.216 7.0731 219.172 7.02958L218.81 6.66685C218.766 6.62333 218.701 6.59431 218.643 6.59431C218.585 6.59431 218.519 6.62333 218.476 6.66685L215.625 9.51786L212.774 6.66685C212.73 6.62333 212.665 6.59431 212.607 6.59431C212.542 6.59431 212.484 6.62333 212.44 6.66685L212.077 7.02958C212.034 7.0731 212.005 7.13839 212.005 7.19643C212.005 7.25446 212.034 7.31975 212.077 7.36328L215.458 10.7439C215.502 10.7874 215.567 10.8164 215.625 10.8164C215.683 10.8164 215.748 10.7874 215.792 10.7439L219.172 7.36328C219.216 7.31975 219.245 7.25446 219.245 7.19643ZM254.991 8.91846H251.113V13H249.894V3.75781H255.62V4.76074H251.113V7.92188H254.991V8.91846ZM262.304 8.72803H258.298V12.0034H262.951V13H257.08V3.75781H262.888V4.76074H258.298V7.73145H262.304V8.72803ZM269.692 8.72803H265.687V12.0034H270.34V13H264.468V3.75781H270.276V4.76074H265.687V7.73145H269.692V8.72803ZM271.857 13V3.75781H274.466C275.27 3.75781 275.981 3.93555 276.599 4.29102C277.216 4.64648 277.693 5.15218 278.027 5.80811C278.365 6.46403 278.537 7.21729 278.541 8.06787V8.6582C278.541 9.52995 278.372 10.2938 278.033 10.9497C277.699 11.6056 277.219 12.1092 276.592 12.4604C275.97 12.8117 275.244 12.9915 274.415 13H271.857ZM273.076 4.76074V12.0034H274.358C275.297 12.0034 276.027 11.7114 276.548 11.1274C277.073 10.5435 277.335 9.71191 277.335 8.63281V8.09326C277.335 7.04378 277.087 6.22917 276.592 5.64941C276.101 5.06543 275.403 4.76921 274.498 4.76074H273.076ZM280.388 13V3.75781H283.41C284.413 3.75781 285.166 3.96517 285.669 4.37988C286.177 4.7946 286.431 5.4082 286.431 6.2207C286.431 6.65234 286.308 7.03532 286.063 7.36963C285.818 7.69971 285.483 7.95573 285.06 8.1377C285.559 8.27734 285.953 8.54395 286.241 8.9375C286.533 9.32682 286.679 9.79232 286.679 10.334C286.679 11.1634 286.41 11.8151 285.873 12.2891C285.335 12.763 284.576 13 283.594 13H280.388ZM281.607 8.67725V12.0034H283.619C284.186 12.0034 284.633 11.8574 284.958 11.5654C285.289 11.2692 285.454 10.863 285.454 10.3467C285.454 9.23372 284.848 8.67725 283.638 8.67725H281.607ZM281.607 7.69971H283.448C283.981 7.69971 284.406 7.56641 284.724 7.2998C285.045 7.0332 285.206 6.67139 285.206 6.21436C285.206 5.70654 285.058 5.33838 284.762 5.10986C284.465 4.87712 284.015 4.76074 283.41 4.76074H281.607V7.69971ZM293.591 10.5879H289.719L288.85 13H287.593L291.122 3.75781H292.188L295.724 13H294.474L293.591 10.5879ZM290.087 9.58496H293.229L291.655 5.26221L290.087 9.58496ZM303.69 10.0674C303.576 11.0449 303.214 11.8003 302.605 12.3335C302 12.8625 301.194 13.127 300.187 13.127C299.095 13.127 298.219 12.7355 297.559 11.9526C296.903 11.1698 296.575 10.1224 296.575 8.81055V7.92188C296.575 7.06283 296.727 6.30745 297.032 5.65576C297.341 5.00407 297.777 4.50472 298.339 4.15771C298.902 3.80648 299.554 3.63086 300.294 3.63086C301.276 3.63086 302.063 3.90592 302.656 4.45605C303.248 5.00195 303.593 5.75944 303.69 6.72852H302.465C302.36 5.99219 302.129 5.45898 301.773 5.12891C301.422 4.79883 300.929 4.63379 300.294 4.63379C299.516 4.63379 298.904 4.92155 298.46 5.49707C298.02 6.07259 297.8 6.89144 297.8 7.95361V8.84863C297.8 9.85156 298.009 10.6493 298.428 11.2417C298.847 11.8341 299.433 12.1304 300.187 12.1304C300.864 12.1304 301.382 11.978 301.742 11.6733C302.106 11.3644 302.347 10.8291 302.465 10.0674H303.69ZM307.708 8.70264L306.579 9.87695V13H305.36V3.75781H306.579V8.32812L310.686 3.75781H312.158L308.521 7.83936L312.444 13H310.984L307.708 8.70264ZM352.58 11.7876C352.267 12.2362 351.829 12.5726 351.266 12.7969C350.708 13.0169 350.056 13.127 349.311 13.127C348.558 13.127 347.889 12.9513 347.305 12.6001C346.721 12.2446 346.268 11.741 345.947 11.0894C345.629 10.4377 345.466 9.68229 345.458 8.82324V8.01709C345.458 6.62484 345.782 5.54574 346.429 4.77979C347.081 4.01383 347.995 3.63086 349.171 3.63086C350.136 3.63086 350.913 3.87842 351.501 4.37354C352.089 4.86442 352.449 5.56266 352.58 6.46826H351.361C351.133 5.24528 350.405 4.63379 349.178 4.63379C348.361 4.63379 347.741 4.92155 347.318 5.49707C346.899 6.06836 346.687 6.89779 346.683 7.98535V8.74072C346.683 9.77751 346.92 10.6027 347.394 11.2163C347.868 11.8257 348.509 12.1304 349.317 12.1304C349.774 12.1304 350.174 12.0796 350.517 11.978C350.86 11.8765 351.143 11.7051 351.368 11.4639V9.38818H349.229V8.39795H352.58V11.7876ZM359.721 10.5879H355.849L354.979 13H353.723L357.252 3.75781H358.318L361.854 13H360.604L359.721 10.5879ZM356.217 9.58496H359.359L357.785 5.26221L356.217 9.58496ZM364.323 12.0034H368.703V13H363.098V3.75781H364.323V12.0034ZM371.318 12.0034H375.698V13H370.093V3.75781H371.318V12.0034ZM382.312 8.72803H378.307V12.0034H382.96V13H377.088V3.75781H382.896V4.76074H378.307V7.73145H382.312V8.72803ZM387.867 9.26123H385.696V13H384.471V3.75781H387.53C388.571 3.75781 389.371 3.99479 389.93 4.46875C390.493 4.94271 390.774 5.63249 390.774 6.53809C390.774 7.11361 390.617 7.61507 390.304 8.04248C389.995 8.46989 389.564 8.78939 389.009 9.00098L391.18 12.9238V13H389.873L387.867 9.26123ZM385.696 8.26465H387.568C388.174 8.26465 388.654 8.10807 389.009 7.79492C389.369 7.48177 389.549 7.06283 389.549 6.53809C389.549 5.9668 389.377 5.52881 389.035 5.22412C388.696 4.91943 388.205 4.76497 387.562 4.76074H385.696V8.26465ZM395.001 8.39795L397.414 3.75781H398.797L395.611 9.55322V13H394.392V9.55322L391.206 3.75781H392.602L395.001 8.39795ZM439.035 10.0674C438.921 11.0449 438.559 11.8003 437.95 12.3335C437.345 12.8625 436.538 13.127 435.531 13.127C434.439 13.127 433.563 12.7355 432.903 11.9526C432.247 11.1698 431.919 10.1224 431.919 8.81055V7.92188C431.919 7.06283 432.072 6.30745 432.376 5.65576C432.685 5.00407 433.121 4.50472 433.684 4.15771C434.247 3.80648 434.899 3.63086 435.639 3.63086C436.621 3.63086 437.408 3.90592 438 4.45605C438.593 5.00195 438.938 5.75944 439.035 6.72852H437.81C437.704 5.99219 437.474 5.45898 437.118 5.12891C436.767 4.79883 436.274 4.63379 435.639 4.63379C434.861 4.63379 434.249 4.92155 433.805 5.49707C433.365 6.07259 433.145 6.89144 433.145 7.95361V8.84863C433.145 9.85156 433.354 10.6493 433.773 11.2417C434.192 11.8341 434.778 12.1304 435.531 12.1304C436.208 12.1304 436.727 11.978 437.086 11.6733C437.45 11.3644 437.692 10.8291 437.81 10.0674H439.035ZM447.814 8.67725C447.814 9.58285 447.662 10.3742 447.357 11.0513C447.052 11.7241 446.621 12.2383 446.062 12.5938C445.503 12.9492 444.852 13.127 444.107 13.127C443.379 13.127 442.734 12.9492 442.171 12.5938C441.608 12.234 441.17 11.7241 440.857 11.064C440.548 10.3996 440.389 9.63151 440.381 8.75977V8.09326C440.381 7.20459 440.535 6.4196 440.844 5.73828C441.153 5.05697 441.589 4.53646 442.152 4.17676C442.719 3.81283 443.366 3.63086 444.094 3.63086C444.835 3.63086 445.486 3.81071 446.049 4.17041C446.616 4.52588 447.052 5.04427 447.357 5.72559C447.662 6.40267 447.814 7.19189 447.814 8.09326V8.67725ZM446.602 8.08057C446.602 6.98454 446.382 6.14453 445.941 5.56055C445.501 4.97233 444.886 4.67822 444.094 4.67822C443.324 4.67822 442.717 4.97233 442.272 5.56055C441.832 6.14453 441.606 6.95703 441.593 7.99805V8.67725C441.593 9.73942 441.815 10.5752 442.26 11.1846C442.708 11.7897 443.324 12.0923 444.107 12.0923C444.894 12.0923 445.503 11.8066 445.935 11.2354C446.367 10.6598 446.589 9.83675 446.602 8.76611V8.08057ZM456.745 13H455.52L450.867 5.87793V13H449.642V3.75781H450.867L455.533 10.9116V3.75781H456.745V13ZM465.105 4.76074H462.134V13H460.922V4.76074H457.958V3.75781H465.105V4.76074ZM471.072 10.5879H467.2L466.33 13H465.073L468.603 3.75781H469.669L473.205 13H471.954L471.072 10.5879ZM467.568 9.58496H470.71L469.136 5.26221L467.568 9.58496ZM481.171 10.0674C481.057 11.0449 480.695 11.8003 480.085 12.3335C479.48 12.8625 478.674 13.127 477.667 13.127C476.575 13.127 475.699 12.7355 475.039 11.9526C474.383 11.1698 474.055 10.1224 474.055 8.81055V7.92188C474.055 7.06283 474.208 6.30745 474.512 5.65576C474.821 5.00407 475.257 4.50472 475.82 4.15771C476.383 3.80648 477.034 3.63086 477.775 3.63086C478.757 3.63086 479.544 3.90592 480.136 4.45605C480.729 5.00195 481.074 5.75944 481.171 6.72852H479.946C479.84 5.99219 479.609 5.45898 479.254 5.12891C478.903 4.79883 478.41 4.63379 477.775 4.63379C476.996 4.63379 476.385 4.92155 475.94 5.49707C475.5 6.07259 475.28 6.89144 475.28 7.95361V8.84863C475.28 9.85156 475.49 10.6493 475.909 11.2417C476.328 11.8341 476.914 12.1304 477.667 12.1304C478.344 12.1304 478.862 11.978 479.222 11.6733C479.586 11.3644 479.827 10.8291 479.946 10.0674H481.171ZM489.036 4.76074H486.065V13H484.853V4.76074H481.888V3.75781H489.036V4.76074ZM499.884 3.75781V10.042C499.88 10.9137 499.604 11.6268 499.059 12.1812C498.517 12.7355 497.781 13.0465 496.85 13.1143L496.526 13.127C495.514 13.127 494.708 12.854 494.107 12.3081C493.507 11.7622 493.202 11.0111 493.193 10.0547V3.75781H494.399V10.0166C494.399 10.6852 494.583 11.2057 494.952 11.5781C495.32 11.9463 495.845 12.1304 496.526 12.1304C497.216 12.1304 497.743 11.9463 498.106 11.5781C498.475 11.21 498.659 10.6916 498.659 10.0229V3.75781H499.884ZM504.53 8.88037C503.485 8.57992 502.723 8.21175 502.245 7.77588C501.771 7.33577 501.534 6.79411 501.534 6.15088C501.534 5.42301 501.824 4.8221 502.404 4.34814C502.988 3.86995 503.745 3.63086 504.676 3.63086C505.311 3.63086 505.876 3.75358 506.371 3.99902C506.87 4.24447 507.256 4.58301 507.526 5.01465C507.801 5.44629 507.939 5.91813 507.939 6.43018H506.714C506.714 5.87158 506.536 5.43359 506.181 5.11621C505.825 4.7946 505.324 4.63379 504.676 4.63379C504.075 4.63379 503.606 4.76709 503.267 5.03369C502.933 5.29606 502.766 5.66211 502.766 6.13184C502.766 6.50846 502.924 6.82796 503.242 7.09033C503.563 7.34847 504.107 7.58545 504.873 7.80127C505.643 8.01709 506.244 8.25618 506.676 8.51855C507.112 8.77669 507.433 9.07926 507.641 9.42627C507.852 9.77327 507.958 10.1816 507.958 10.6514C507.958 11.4004 507.666 12.0013 507.082 12.4541C506.498 12.9027 505.717 13.127 504.74 13.127C504.105 13.127 503.513 13.0063 502.962 12.7651C502.412 12.5197 501.987 12.1854 501.687 11.7622C501.39 11.339 501.242 10.8587 501.242 10.3213H502.467C502.467 10.8799 502.673 11.3221 503.083 11.6479C503.498 11.9696 504.05 12.1304 504.74 12.1304C505.383 12.1304 505.876 11.9992 506.219 11.7368C506.562 11.4744 506.733 11.1169 506.733 10.6641C506.733 10.2113 506.574 9.86214 506.257 9.6167C505.939 9.36702 505.364 9.12158 504.53 8.88037Z" fill="black"/>
</g>
<defs>
<clipPath id="clip0">
<rect width="1440" height="2159" fill="white" transform="translate(-297 -41)"/>
</clipPath>
</defs>
</svg>
